<svg width="24" height="24" viewBox="0 0 24 24" fill="none" xmlns="http://www.w3.org/2000/svg">
<rect x="2.5" y="2.5" width="19" height="19" rx="3.5" fill="#151B29" stroke="#4AB4FF"/>
<path d="M11 16.4L7.30002 12.7C7.11746 12.5137 7.01579 12.2629 7.0171 12.0021C7.01842 11.7412 7.12262 11.4915 7.30705 11.307C7.49149 11.1226 7.74126 11.0184 8.00209 11.0171C8.26292 11.0158 8.51373 11.1174 8.70002 11.3L11 13.6L16.3 8.3C16.4863 8.11744 16.7371 8.01577 16.9979 8.01709C17.2588 8.0184 17.5085 8.1226 17.693 8.30704C17.8774 8.49148 17.9816 8.74125 17.9829 9.00207C17.9843 9.2629 17.8826 9.51371 17.7 9.7L11 16.4Z" fill="#4AB4FF"/>
</svg>
